if (_typeface_js && _typeface_js.loadFace) _typeface_js.loadFace({"glyphs":{"0":{"ha":660,"x_min":10,"x_max":644,"o":"m 328 893 q 473 810 410 893 q 555 486 555 701 q 496 186 555 292 q 328 79 436 79 q 159 186 219 79 q 100 486 100 292 q 182 810 100 701 q 328 893 244 893 m 328 -9 q 522 71 442 -9 q 644 486 644 195 q 543 867 644 733 q 328 983 454 983 q 113 867 201 983 q 10 486 10 733 q 98 115 10 243 q 328 -9 182 -9 "},"1":{"ha":220,"x_min":34,"x_max":172,"o":"m 34 974 l 172 974 l 172 0 l 82 0 l 82 884 l 34 884 l 34 974 "},"2":{"ha":509,"x_min":-5,"x_max":466,"o":"m 466 0 l 466 90 l 151 90 q 385 511 327 393 q 459 739 459 663 q 392 918 459 847 q 222 988 326 988 q 92 946 152 988 q 3 833 32 903 l 85 798 q 142 871 104 844 q 222 898 179 898 q 328 853 287 898 q 369 739 369 809 q 34 68 369 644 l -5 0 l 466 0 "},"3":{"ha":547,"x_min":14,"x_max":528,"o":"m 237 -9 q 443 76 357 -9 q 528 282 528 161 q 489 428 528 360 q 386 532 451 493 q 488 732 488 607 q 414 910 488 836 q 237 983 341 983 q 115 951 172 983 q 24 864 58 920 l 100 817 q 237 894 147 894 q 351 846 304 894 q 399 732 399 800 q 351 619 399 667 q 237 572 304 572 l 237 483 q 380 424 321 483 q 439 282 439 366 q 380 139 439 199 q 237 80 321 80 q 83 153 143 80 l 14 96 q 237 -9 101 -9 "},"4":{"ha":551,"x_min":13,"x_max":502,"o":"m 412 974 l 502 974 l 502 0 l 412 0 l 412 397 l 13 397 l 101 974 l 192 974 l 117 487 l 412 487 l 412 974 "},"5":{"ha":547,"x_min":16,"x_max":526,"o":"m 235 -11 q 440 75 355 -11 q 526 280 526 160 q 440 485 526 400 q 235 570 355 570 l 162 570 l 193 883 l 481 883 l 481 972 l 111 972 l 64 480 l 235 480 q 377 421 318 480 q 436 280 436 363 q 377 138 436 197 q 235 79 318 79 q 83 148 144 79 l 16 90 q 235 -11 102 -11 "},"6":{"ha":614,"x_min":4,"x_max":597,"o":"m 306 491 q 163 432 222 491 q 104 290 104 372 q 163 146 104 205 q 306 87 222 87 q 448 146 389 87 q 507 290 507 205 q 448 432 507 372 q 306 491 389 491 m 15 287 q 45 570 4 422 q 412 977 132 879 l 442 892 q 132 549 207 810 q 124 516 128 533 q 306 581 204 581 q 511 495 426 581 q 597 290 597 410 q 511 83 597 169 q 306 -3 426 -3 q 101 82 186 -3 q 15 287 16 167 "},"7":{"ha":504,"x_min":14,"x_max":483,"o":"m 14 974 l 483 974 l 212 0 l 119 0 l 366 884 l 14 884 l 14 974 "},"8":{"ha":602,"x_min":10,"x_max":590,"o":"m 300 90 q 442 149 383 90 q 501 291 501 208 q 442 433 501 374 q 300 491 383 491 q 158 433 217 491 q 100 291 100 374 q 158 149 100 208 q 300 90 217 90 m 140 741 q 186 627 140 674 q 300 581 234 581 q 414 627 367 581 q 460 741 460 674 q 414 854 460 807 q 300 901 367 901 q 186 854 234 901 q 140 741 140 807 m 448 530 q 551 427 513 492 q 590 281 590 359 q 505 76 590 161 q 300 -9 420 -9 q 95 76 180 -9 q 10 281 10 161 q 50 427 10 359 q 152 530 87 492 q 50 731 50 605 q 123 907 50 834 q 300 981 197 981 q 477 907 404 981 q 550 731 550 834 q 448 530 550 605 "},"9":{"ha":614,"x_min":12,"x_max":605,"o":"m 303 484 q 446 543 387 484 q 505 686 505 602 q 446 828 505 769 q 303 888 387 888 q 161 828 220 888 q 102 686 102 769 q 161 543 102 602 q 303 484 220 484 m 594 688 q 564 405 605 552 q 197 -3 477 96 l 167 82 q 477 427 402 164 q 485 458 481 441 q 303 395 405 395 q 98 479 183 395 q 12 686 12 565 q 98 892 12 806 q 303 977 183 977 q 508 892 422 977 q 594 688 593 808 "}," ":{"ha":312,"x_min":0,"x_max":0,"o":""},"!":{"ha":228,"x_min":51,"x_max":180,"o":"m 116 120 q 161 101 142 120 q 180 56 180 82 q 161 9 180 28 q 116 -9 142 -9 q 70 9 89 -9 q 51 56 51 28 q 70 101 51 82 q 116 120 89 120 m 161 197 l 161 979 l 71 979 l 71 197 l 161 197 "},"\"":{"ha":317,"x_min":19,"x_max":298,"o":"m 146 935 q 145 864 154 898 q 78 786 132 809 l 60 811 q 93 853 85 827 q 84 852 88 852 q 38 871 57 852 q 19 918 19 890 q 38 964 19 945 q 84 983 57 983 q 123 969 105 983 q 146 935 140 956 m 290 935 q 289 864 298 898 q 222 786 275 809 l 203 811 q 237 853 229 827 q 228 852 232 852 q 182 871 201 852 q 163 918 163 890 q 182 964 163 945 q 228 983 201 983 q 267 969 249 983 q 290 935 284 956 "},"#":{"ha":739,"x_min":14,"x_max":718,"o":"m 501 974 l 591 974 l 560 647 l 718 647 l 718 557 l 552 557 l 541 437 l 718 437 l 718 348 l 533 348 l 500 0 l 411 0 l 443 348 l 301 348 l 269 0 l 179 0 l 212 348 l 14 348 l 14 437 l 220 437 l 231 557 l 14 557 l 14 647 l 239 647 l 269 974 l 359 974 l 329 647 l 471 647 l 501 974 m 321 557 l 309 437 l 452 437 l 463 557 l 321 557 "},"$":{"ha":518,"x_min":14,"x_max":498,"o":"m 300 420 l 300 203 q 376 245 347 215 q 406 310 404 275 q 300 420 408 375 m 110 651 q 210 545 107 588 l 210 758 q 159 739 180 752 q 110 651 113 711 m 300 759 l 300 515 q 448 429 397 482 q 495 306 498 375 q 440 184 492 238 q 300 113 385 125 l 300 -21 l 210 -21 l 210 113 q 96 156 146 122 q 17 253 39 194 l 102 284 q 210 203 124 223 l 210 449 q 20 655 14 516 q 112 815 25 762 q 210 849 154 841 l 210 982 l 300 982 l 300 850 q 458 772 399 837 l 393 711 q 300 759 359 747 "},"%":{"ha":700,"x_min":-1,"x_max":703,"o":"m 545 974 l 644 974 l 176 0 l 77 0 l 545 974 m 172 823 q 230 798 205 823 q 254 740 254 774 q 230 681 254 705 q 172 656 205 656 q 113 681 137 656 q 88 740 88 705 q 113 798 88 774 q 172 823 137 823 m 172 567 q 294 618 243 567 q 344 740 344 668 q 294 862 344 811 q 172 912 243 912 q 50 862 100 912 q -1 740 -1 811 q 50 618 -1 668 q 172 567 100 567 m 531 278 q 589 254 565 278 q 614 195 614 229 q 589 136 614 161 q 531 112 565 112 q 472 136 496 112 q 448 195 448 161 q 472 254 448 229 q 531 278 496 278 m 531 22 q 653 73 602 22 q 703 195 703 123 q 653 317 703 267 q 531 368 602 368 q 409 317 459 368 q 358 195 358 267 q 409 73 358 123 q 531 22 459 22 "},"&":{"ha":581,"x_min":17,"x_max":562,"o":"m 412 90 l 412 445 l 283 445 q 159 393 210 445 q 106 268 106 341 q 159 142 106 194 q 283 90 210 90 l 412 90 m 501 534 l 562 534 l 562 445 l 501 445 l 501 0 l 283 0 q 95 79 174 0 q 17 268 17 157 q 60 412 17 346 q 170 509 101 476 q 77 709 77 588 q 155 897 77 819 q 341 974 232 974 l 456 974 l 456 884 l 341 884 q 218 833 269 884 q 166 709 166 782 q 218 586 166 637 q 341 534 269 534 l 412 534 l 412 646 l 501 646 l 501 534 "},"'":{"ha":173,"x_min":19,"x_max":154,"o":"m 146 935 q 145 864 154 898 q 78 786 132 809 l 60 811 q 93 853 85 827 q 84 852 88 852 q 38 871 57 852 q 19 918 19 890 q 38 964 19 945 q 84 983 57 983 q 123 969 105 983 q 146 935 140 956 "},"(":{"ha":259,"x_min":17,"x_max":258,"o":"m 106 489 q 258 37 106 134 l 258 -62 q 93 92 153 -20 q 17 489 17 233 q 93 893 17 754 q 258 1041 152 1000 l 258 943 q 106 489 106 853 "},")":{"ha":259,"x_min":2,"x_max":243,"o":"m 153 490 q 2 941 153 844 l 2 1041 q 167 887 106 999 q 243 490 243 745 q 166 85 243 224 q 2 -62 107 -22 l 2 36 q 153 490 153 125 "},"*":{"ha":379,"x_min":16,"x_max":358,"o":"m 142 972 l 231 972 l 231 868 l 330 901 l 358 816 l 259 783 l 320 699 l 248 647 l 186 731 l 125 647 l 54 699 l 115 783 l 16 816 l 43 901 l 142 868 l 142 972 "},"+":{"ha":374,"x_min":25,"x_max":349,"o":"m 349 562 l 349 472 l 232 472 l 232 355 l 142 355 l 142 472 l 25 472 l 25 562 l 142 562 l 142 678 l 232 678 l 232 562 l 349 562 "},",":{"ha":237,"x_min":52,"x_max":187,"o":"m 180 73 q 178 1 187 35 q 111 -77 165 -54 l 93 -52 q 126 -9 119 -36 q 117 -10 121 -10 q 71 9 90 -10 q 52 55 52 28 q 71 101 52 82 q 117 120 90 120 q 157 106 138 120 q 180 73 174 93 "},"-":{"ha":359,"x_min":16,"x_max":340,"o":"m 340 471 l 340 561 l 16 561 l 16 471 l 340 471 "},".":{"ha":240,"x_min":51,"x_max":180,"o":"m 116 120 q 161 101 142 120 q 180 56 180 82 q 161 9 180 28 q 116 -9 142 -9 q 70 9 89 -9 q 51 56 51 28 q 70 101 51 82 q 116 120 89 120 "},"/":{"ha":370,"x_min":-100,"x_max":466,"o":"m 366 974 l 466 974 l -1 0 l -100 0 l 366 974 "},":":{"ha":245,"x_min":51,"x_max":180,"o":"m 116 120 q 161 101 142 120 q 180 56 180 82 q 161 9 180 28 q 116 -9 142 -9 q 70 9 89 -9 q 51 56 51 28 q 70 101 51 82 q 116 120 89 120 m 116 581 q 161 562 142 581 q 180 515 180 543 q 161 470 180 488 q 116 451 142 451 q 70 470 89 451 q 51 515 51 488 q 70 562 51 543 q 116 581 89 581 "},";":{"ha":240,"x_min":51,"x_max":186,"o":"m 180 73 q 178 1 186 35 q 111 -77 164 -54 l 92 -52 q 126 -9 119 -36 q 117 -10 121 -10 q 71 9 90 -10 q 52 55 52 28 q 71 101 52 82 q 117 120 90 120 q 156 106 138 120 q 180 73 173 93 m 116 581 q 161 562 142 581 q 180 515 180 543 q 161 470 180 488 q 116 451 142 451 q 70 470 89 451 q 51 515 51 488 q 70 562 51 543 q 116 581 89 581 "},"<":{"ha":542,"x_min":-1,"x_max":519,"o":"m 196 289 l 519 127 l 519 28 l -1 287 l 519 561 l 519 459 l 196 289 "},"=":{"ha":359,"x_min":16,"x_max":340,"o":"m 340 471 l 340 561 l 16 561 l 16 471 l 340 471 m 340 293 l 340 383 l 16 383 l 16 293 l 340 293 "},">":{"ha":542,"x_min":20,"x_max":540,"o":"m 20 127 l 344 289 l 20 459 l 20 561 l 540 287 l 20 28 l 20 127 "},"?":{"ha":437,"x_min":13,"x_max":419,"o":"m 140 193 l 229 193 q 239 378 229 327 q 293 494 251 435 q 325 534 302 507 q 387 618 369 586 q 419 735 419 675 q 353 913 419 843 q 184 983 286 983 q 13 905 83 983 l 79 845 q 184 894 123 894 q 289 850 248 894 q 330 735 330 805 q 256 591 330 677 q 220 547 231 562 q 152 398 168 473 q 140 193 140 337 m 190 120 q 235 101 216 120 q 254 56 254 82 q 235 9 254 28 q 190 -9 216 -9 q 144 9 163 -9 q 125 56 125 28 q 144 101 125 82 q 190 120 163 120 "},"@":{"ha":971,"x_min":3,"x_max":964,"o":"m 465 290 q 639 440 593 290 q 632 592 663 522 q 541 677 603 659 q 503 684 522 684 q 329 533 374 684 q 336 380 304 452 q 427 296 365 314 q 465 290 445 290 m 846 800 q 943 439 964 642 q 916 317 937 376 l 915 315 q 768 157 859 176 q 659 189 707 143 q 620 257 630 214 q 465 200 549 200 q 401 210 432 200 q 254 345 299 240 q 243 558 210 446 q 344 713 271 653 q 503 772 416 772 q 566 764 535 772 q 714 628 668 733 q 724 414 758 527 q 714 385 720 400 q 720 254 685 286 q 748 243 734 241 q 831 348 793 254 q 854 448 848 396 q 774 747 871 617 q 526 891 677 876 q 253 801 373 907 q 113 525 131 693 q 193 227 96 357 q 442 82 289 98 q 646 124 549 71 l 689 45 q 477 -9 589 -9 q 433 -7 455 -9 q 123 171 243 12 q 24 534 3 330 q 194 868 45 737 q 534 980 343 1000 q 846 800 726 960 "},"A":{"ha":798,"x_min":4,"x_max":739,"o":"m 620 974 l 739 974 l 739 0 l 650 0 l 650 243 l 264 243 l 110 0 l 4 0 l 620 974 m 650 854 l 320 333 l 650 333 l 650 854 "},"B":{"ha":700,"x_min":63,"x_max":680,"o":"m 153 534 l 153 884 l 356 884 q 479 833 428 884 q 531 709 531 782 q 479 585 531 637 q 356 534 428 534 l 153 534 m 153 90 l 153 444 l 414 444 q 539 393 487 444 q 591 268 591 340 q 539 142 591 194 q 414 90 487 90 l 153 90 m 63 0 l 414 0 q 602 79 524 0 q 680 268 680 157 q 638 412 680 346 q 528 508 597 475 q 621 709 621 588 q 543 897 621 819 q 356 974 465 974 l 63 974 l 63 0 "},"C":{"ha":753,"x_min":18,"x_max":736,"o":"m 515 80 q 736 146 635 80 l 736 43 q 515 -9 631 -9 q 164 136 309 -9 q 18 487 18 281 q 164 838 18 692 q 515 983 309 983 q 736 931 631 983 l 736 828 q 515 894 635 894 q 227 774 347 894 q 108 487 108 655 q 227 199 108 319 q 515 80 347 80 "},"D":{"ha":806,"x_min":59,"x_max":785,"o":"m 148 89 l 148 885 l 298 885 q 580 768 463 885 q 696 487 696 652 q 580 205 696 322 q 298 89 463 89 l 148 89 m 59 0 l 298 0 q 643 143 500 0 q 785 487 785 286 q 643 831 785 688 q 298 974 500 974 l 59 974 l 59 0 "},"E":{"ha":576,"x_min":61,"x_max":558,"o":"m 61 974 l 558 974 l 558 884 l 151 884 l 151 533 l 473 533 l 473 444 l 151 444 l 151 90 l 558 90 l 558 0 l 61 0 l 61 974 "},"F":{"ha":576,"x_min":61,"x_max":558,"o":"m 61 974 l 558 974 l 558 884 l 151 884 l 151 533 l 473 533 l 473 444 l 151 444 l 151 0 l 61 0 l 61 974 "},"G":{"ha":748,"x_min":12,"x_max":730,"o":"m 509 -9 q 703 30 610 -9 l 730 41 l 730 534 l 437 534 l 437 445 l 640 445 l 640 102 q 509 80 576 80 q 221 199 340 80 q 102 487 102 319 q 221 774 102 655 q 509 893 340 893 q 667 861 591 893 l 702 944 q 509 983 610 983 q 158 838 303 983 q 12 487 12 692 q 158 136 12 281 q 509 -9 303 -9 "},"H":{"ha":772,"x_min":52,"x_max":725,"o":"m 635 974 l 725 974 l 725 0 l 635 0 l 635 444 l 142 444 l 142 0 l 52 0 l 52 974 l 142 974 l 142 533 l 635 533 l 635 974 "},"I":{"ha":149,"x_min":27,"x_max":117,"o":"m 27 0 l 27 979 l 117 979 l 117 0 l 27 0 "},"J":{"ha":374,"x_min":-2,"x_max":327,"o":"m 237 977 l 327 977 l 327 317 q 231 85 327 182 q -2 -11 134 -11 l -2 79 q 167 149 97 79 q 237 317 237 219 l 237 977 "},"K":{"ha":695,"x_min":62,"x_max":693,"o":"m 566 974 l 680 974 l 291 489 l 693 0 l 578 0 l 233 418 l 151 315 l 151 1 l 62 1 l 62 973 l 151 973 l 151 458 l 566 974 "},"L":{"ha":623,"x_min":61,"x_max":603,"o":"m 61 974 l 151 974 l 151 90 l 603 90 l 603 0 l 61 0 l 61 974 "},"M":{"ha":1046,"x_min":61,"x_max":991,"o":"m 899 974 l 991 974 l 991 1 l 903 1 l 903 758 l 575 0 l 477 0 l 151 758 l 151 1 l 61 1 l 61 974 l 155 974 l 526 113 l 899 974 "},"N":{"ha":791,"x_min":61,"x_max":732,"o":"m 643 974 l 732 974 l 732 0 l 636 0 l 151 812 l 151 0 l 61 0 l 61 974 l 158 974 l 643 162 l 643 974 "},"O":{"ha":1026,"x_min":16,"x_max":1008,"o":"m 512 893 q 224 774 344 893 q 105 486 105 654 q 224 199 105 318 q 512 79 344 79 q 800 199 680 79 q 919 486 919 318 q 800 774 919 654 q 512 893 680 893 m 512 -10 q 161 136 307 -10 q 16 486 16 281 q 161 838 16 692 q 512 983 307 983 q 863 838 718 983 q 1008 486 1008 692 q 863 136 1008 281 q 512 -10 718 -10 z "},"P":{"ha":700,"x_min":63,"x_max":680,"o":"m 153 529 l 414 529 q 539 581 487 529 q 591 706 591 633 q 539 832 591 780 q 414 884 487 884 l 153 884 l 153 529 m 153 0 l 63 0 l 63 974 l 414 974 q 602 895 524 974 q 680 706 680 817 q 602 517 680 596 q 414 439 524 439 l 153 439 l 153 0 z "},"Q":{"ha":1069,"x_min":16,"x_max":1067,"o":"m 512 79 q 719 136 623 79 l 113 563 q 105 486 105 525 q 224 199 105 318 q 512 79 344 79 m 512 893 q 288 826 390 893 q 141 652 189 761 l 793 193 q 919 486 919 313 q 800 774 919 654 q 512 893 680 893 m 1067 0 l 911 0 l 798 81 q 512 -10 669 -10 q 161 136 307 -10 q 16 486 16 281 q 161 838 16 692 q 512 983 307 983 q 863 838 718 983 q 1008 486 1008 692 q 868 140 1008 285 l 1067 0 "},"R":{"ha":715,"x_min":63,"x_max":715,"o":"m 153 530 l 413 530 q 538 581 486 530 q 590 707 590 633 q 538 832 590 780 q 413 884 486 884 l 153 884 l 153 530 m 482 449 l 715 0 l 614 0 l 386 440 l 153 440 l 153 1 l 63 1 l 63 974 l 413 974 q 602 895 524 974 q 680 707 680 817 q 623 543 680 615 q 482 449 568 472 "},"S":{"ha":657,"x_min":14,"x_max":644,"o":"m 326 -9 q 542 62 452 -9 q 641 247 635 138 q 588 396 644 330 q 342 531 514 483 q 109 723 103 598 q 184 859 113 814 q 348 894 249 898 q 529 817 463 888 l 595 878 q 352 983 504 976 q 137 935 226 989 q 19 727 25 866 q 72 579 16 645 q 318 445 146 493 q 551 250 557 378 q 486 132 548 182 q 312 80 416 76 q 186 115 244 83 q 98 209 119 151 l 14 178 q 135 41 45 92 q 308 -9 214 -5 q 326 -9 317 -9 "},"T":{"ha":633,"x_min":14,"x_max":614,"o":"m 14 974 l 614 974 l 614 884 l 359 884 l 359 0 l 269 0 l 269 884 l 14 884 l 14 974 "},"U":{"ha":777,"x_min":60,"x_max":731,"o":"m 395 -11 q 633 87 534 -11 q 731 325 731 186 l 731 972 l 642 972 l 642 325 q 570 151 642 223 q 395 78 497 78 q 221 151 294 78 q 149 325 149 223 l 149 972 l 60 972 l 60 325 q 158 87 60 186 q 395 -11 256 -11 "},"V":{"ha":796,"x_min":60,"x_max":795,"o":"m 690 974 l 795 974 l 180 0 l 60 0 l 60 974 l 150 974 l 150 119 l 690 974 "},"W":{"ha":1419,"x_min":52,"x_max":1417,"o":"m 1311 974 l 1417 974 l 801 0 l 682 0 l 682 806 l 172 0 l 52 0 l 52 974 l 142 974 l 142 119 l 682 974 l 771 974 l 771 119 l 1311 974 "},"X":{"ha":690,"x_min":1,"x_max":689,"o":"m 586 974 l 689 974 l 397 478 l 679 0 l 575 0 l 345 390 l 116 0 l 12 0 l 294 478 l 1 974 l 105 974 l 345 566 l 586 974 "},"Y":{"ha":690,"x_min":2,"x_max":690,"o":"m 587 974 l 690 974 l 391 466 l 391 0 l 301 0 l 301 466 l 2 974 l 106 974 l 346 566 l 587 974 "},"Z":{"ha":623,"x_min":-3,"x_max":626,"o":"m 43 974 l 626 974 l 147 90 l 581 90 l 581 0 l -3 0 l 476 884 l 43 884 l 43 974 "},"[":{"ha":211,"x_min":24,"x_max":210,"o":"m 210 -62 l 24 -62 l 24 1041 l 210 1041 l 210 951 l 113 951 l 113 27 l 210 27 l 210 -62 "},"\\":{"ha":370,"x_min":-100,"x_max":466,"o":"m -1 0 l -100 0 l 366 974 l 466 974 l -1 0 "},"]":{"ha":211,"x_min":0,"x_max":186,"o":"m 0 1041 l 186 1041 l 186 -62 l 0 -62 l 0 27 l 96 27 l 96 951 l 0 951 l 0 1041 "},"^":{"ha":359,"x_min":16,"x_max":340,"o":"m 105 975 l 251 975 l 340 822 l 237 822 l 178 922 l 119 822 l 16 822 l 105 975 "},"_":{"ha":359,"x_min":16,"x_max":340,"o":"m 340 -110 l 340 -20 l 16 -20 l 16 -110 l 340 -110 "},"`":{"ha":153,"x_min":20,"x_max":131,"o":"m 20 1167 l 131 1167 l 131 1014 l 93 1014 l 20 1167 "},"a":{"ha":798,"x_min":4,"x_max":739,"o":"m 620 974 l 739 974 l 739 0 l 650 0 l 650 243 l 264 243 l 110 0 l 4 0 l 620 974 m 650 854 l 320 333 l 650 333 l 650 854 "},"b":{"ha":700,"x_min":63,"x_max":680,"o":"m 153 534 l 153 884 l 356 884 q 479 833 428 884 q 531 709 531 782 q 479 585 531 637 q 356 534 428 534 l 153 534 m 153 90 l 153 444 l 414 444 q 539 393 487 444 q 591 268 591 340 q 539 142 591 194 q 414 90 487 90 l 153 90 m 63 0 l 414 0 q 602 79 524 0 q 680 268 680 157 q 638 412 680 346 q 528 508 597 475 q 621 709 621 588 q 543 897 621 819 q 356 974 465 974 l 63 974 l 63 0 "},"c":{"ha":753,"x_min":18,"x_max":736,"o":"m 515 80 q 736 146 635 80 l 736 43 q 515 -9 631 -9 q 164 136 309 -9 q 18 487 18 281 q 164 838 18 692 q 515 983 309 983 q 736 931 631 983 l 736 828 q 515 894 635 894 q 227 774 347 894 q 108 487 108 655 q 227 199 108 319 q 515 80 347 80 "},"d":{"ha":806,"x_min":59,"x_max":785,"o":"m 148 89 l 148 885 l 298 885 q 580 768 463 885 q 696 487 696 652 q 580 205 696 322 q 298 89 463 89 l 148 89 m 59 0 l 298 0 q 643 143 500 0 q 785 487 785 286 q 643 831 785 688 q 298 974 500 974 l 59 974 l 59 0 "},"e":{"ha":576,"x_min":61,"x_max":558,"o":"m 61 974 l 558 974 l 558 884 l 151 884 l 151 533 l 473 533 l 473 444 l 151 444 l 151 90 l 558 90 l 558 0 l 61 0 l 61 974 "},"f":{"ha":576,"x_min":61,"x_max":558,"o":"m 61 974 l 558 974 l 558 884 l 151 884 l 151 533 l 473 533 l 473 444 l 151 444 l 151 0 l 61 0 l 61 974 "},"g":{"ha":748,"x_min":12,"x_max":730,"o":"m 509 -9 q 703 30 610 -9 l 730 41 l 730 534 l 437 534 l 437 445 l 640 445 l 640 102 q 509 80 576 80 q 221 199 340 80 q 102 487 102 319 q 221 774 102 655 q 509 893 340 893 q 667 861 591 893 l 702 944 q 509 983 610 983 q 158 838 303 983 q 12 487 12 692 q 158 136 12 281 q 509 -9 303 -9 "},"h":{"ha":772,"x_min":52,"x_max":725,"o":"m 635 974 l 725 974 l 725 0 l 635 0 l 635 444 l 142 444 l 142 0 l 52 0 l 52 974 l 142 974 l 142 533 l 635 533 l 635 974 "},"i":{"ha":149,"x_min":27,"x_max":117,"o":"m 27 0 l 27 979 l 117 979 l 117 0 l 27 0 "},"j":{"ha":374,"x_min":-2,"x_max":327,"o":"m 237 977 l 327 977 l 327 317 q 231 85 327 182 q -2 -11 134 -11 l -2 79 q 167 149 97 79 q 237 317 237 219 l 237 977 "},"k":{"ha":695,"x_min":62,"x_max":693,"o":"m 566 974 l 680 974 l 291 489 l 693 0 l 578 0 l 233 418 l 151 315 l 151 1 l 62 1 l 62 973 l 151 973 l 151 458 l 566 974 "},"l":{"ha":623,"x_min":61,"x_max":603,"o":"m 61 974 l 151 974 l 151 90 l 603 90 l 603 0 l 61 0 l 61 974 "},"m":{"ha":1046,"x_min":61,"x_max":991,"o":"m 899 974 l 991 974 l 991 1 l 903 1 l 903 758 l 575 0 l 477 0 l 151 758 l 151 1 l 61 1 l 61 974 l 155 974 l 526 113 l 899 974 "},"n":{"ha":791,"x_min":61,"x_max":732,"o":"m 643 974 l 732 974 l 732 0 l 636 0 l 151 812 l 151 0 l 61 0 l 61 974 l 158 974 l 643 162 l 643 974 "},"o":{"ha":1026,"x_min":16,"x_max":1008,"o":"m 512 893 q 800 774 680 893 q 919 486 919 654 q 800 199 919 318 q 512 79 680 79 q 224 199 344 79 q 105 486 105 318 q 224 774 105 654 q 512 893 344 893 m 512 -10 q 863 136 718 -10 q 1008 486 1008 281 q 863 838 1008 692 q 512 983 718 983 q 161 838 307 983 q 16 486 16 692 q 161 136 16 281 q 512 -10 307 -10 "},"p":{"ha":700,"x_min":63,"x_max":680,"o":"m 153 529 l 153 884 l 414 884 q 539 832 487 884 q 591 706 591 780 q 539 581 591 633 q 414 529 487 529 l 153 529 m 153 0 l 153 439 l 414 439 q 602 517 524 439 q 680 706 680 596 q 602 895 680 817 q 414 974 524 974 l 63 974 l 63 0 l 153 0 "},"q":{"ha":1069,"x_min":16,"x_max":1067,"o":"m 512 79 q 719 136 623 79 l 113 563 q 105 486 105 525 q 224 199 105 318 q 512 79 344 79 m 512 893 q 288 826 390 893 q 141 652 189 761 l 793 193 q 919 486 919 313 q 800 774 919 654 q 512 893 680 893 m 1067 0 l 911 0 l 798 81 q 512 -10 669 -10 q 161 136 307 -10 q 16 486 16 281 q 161 838 16 692 q 512 983 307 983 q 863 838 718 983 q 1008 486 1008 692 q 868 140 1008 285 l 1067 0 "},"r":{"ha":715,"x_min":63,"x_max":715,"o":"m 153 530 l 413 530 q 538 581 486 530 q 590 707 590 633 q 538 832 590 780 q 413 884 486 884 l 153 884 l 153 530 m 482 449 l 715 0 l 614 0 l 386 440 l 153 440 l 153 1 l 63 1 l 63 974 l 413 974 q 602 895 524 974 q 680 707 680 817 q 623 543 680 615 q 482 449 568 472 "},"s":{"ha":662,"x_min":14,"x_max":644,"o":"m 326 -9 q 542 62 452 -9 q 641 247 635 138 q 588 396 644 330 q 342 531 514 483 q 109 723 103 598 q 184 859 113 814 q 348 894 249 898 q 529 817 463 888 l 595 878 q 352 983 504 976 q 137 935 226 989 q 19 727 25 866 q 72 579 16 645 q 318 445 146 493 q 551 250 557 378 q 486 132 548 182 q 312 80 416 76 q 186 115 244 83 q 98 209 119 151 l 14 178 q 135 41 45 92 q 308 -9 214 -5 q 326 -9 317 -9 "},"t":{"ha":633,"x_min":14,"x_max":614,"o":"m 14 974 l 614 974 l 614 884 l 359 884 l 359 0 l 269 0 l 269 884 l 14 884 l 14 974 "},"u":{"ha":777,"x_min":60,"x_max":731,"o":"m 395 -11 q 633 87 534 -11 q 731 325 731 186 l 731 972 l 642 972 l 642 325 q 570 151 642 223 q 395 78 497 78 q 221 151 294 78 q 149 325 149 223 l 149 972 l 60 972 l 60 325 q 158 87 60 186 q 395 -11 256 -11 "},"v":{"ha":796,"x_min":60,"x_max":795,"o":"m 690 974 l 795 974 l 180 0 l 60 0 l 60 974 l 150 974 l 150 119 l 690 974 "},"w":{"ha":1419,"x_min":52,"x_max":1417,"o":"m 1311 974 l 1417 974 l 801 0 l 682 0 l 682 806 l 172 0 l 52 0 l 52 974 l 142 974 l 142 119 l 682 974 l 771 974 l 771 119 l 1311 974 "},"x":{"ha":690,"x_min":1,"x_max":689,"o":"m 586 974 l 689 974 l 397 478 l 679 0 l 575 0 l 345 390 l 116 0 l 12 0 l 294 478 l 1 974 l 105 974 l 345 566 l 586 974 "},"y":{"ha":690,"x_min":2,"x_max":690,"o":"m 587 974 l 690 974 l 391 466 l 391 0 l 301 0 l 301 466 l 2 974 l 106 974 l 346 566 l 587 974 "},"z":{"ha":623,"x_min":-3,"x_max":626,"o":"m 43 974 l 626 974 l 147 90 l 581 90 l 581 0 l -3 0 l 476 884 l 43 884 l 43 974 "},"{":{"ha":688,"x_min":0,"x_max":0,"o":""},"|":{"ha":688,"x_min":0,"x_max":0,"o":""},"}":{"ha":688,"x_min":0,"x_max":0,"o":""},"~":{"ha":408,"x_min":13,"x_max":387,"o":"m 295 825 q 387 864 342 825 l 327 931 q 291 915 307 913 q 235 939 276 916 q 194 960 209 953 q 81 962 138 986 q 13 909 39 944 l 85 855 q 156 878 116 897 q 192 860 169 873 q 295 825 257 825 "},"¡":{"ha":228,"x_min":51,"x_max":180,"o":"m 115 604 q 70 623 89 604 q 51 669 51 642 q 70 715 51 696 q 115 734 89 734 q 161 715 142 734 q 180 669 180 696 q 161 623 180 642 q 115 604 142 604 m 71 527 l 71 -254 l 160 -254 l 160 527 l 71 527 "},"¢":{"ha":623,"x_min":16,"x_max":604,"o":"m 323 216 l 323 760 q 168 663 229 739 q 105 488 105 587 q 168 312 105 389 q 323 216 229 237 m 604 782 l 604 658 q 413 764 531 752 l 413 210 q 604 316 531 222 l 604 192 q 413 120 519 128 l 413 -14 l 323 -14 l 323 123 q 104 248 192 146 q 16 487 16 351 q 104 726 16 623 q 323 850 192 828 l 323 987 l 413 987 l 413 854 q 604 782 519 846 "},"£":{"ha":509,"x_min":20,"x_max":487,"o":"m 405 278 l 163 278 q 134 90 155 186 l 474 90 l 474 0 l 21 0 l 35 56 q 47 651 107 350 q 34 728 37 704 q 83 900 20 826 q 269 982 155 982 q 399 940 339 982 q 487 828 458 898 l 405 793 q 269 892 363 892 q 151 841 195 892 q 123 741 114 798 q 136 668 125 719 q 168 368 169 498 l 405 368 l 405 278 "},"¤":{"ha":688,"x_min":0,"x_max":0,"o":""},"¥":{"ha":690,"x_min":1,"x_max":688,"o":"m 585 974 l 688 974 l 428 532 l 587 532 l 587 442 l 389 442 l 389 382 l 587 382 l 587 292 l 389 292 l 389 0 l 300 0 l 300 292 l 102 292 l 102 382 l 300 382 l 300 442 l 102 442 l 102 532 l 261 532 l 1 974 l 104 974 l 345 566 l 585 974 "},"¦":{"ha":688,"x_min":0,"x_max":0,"o":""},"§":{"ha":688,"x_min":0,"x_max":0,"o":""},"¨":{"ha":331,"x_min":20,"x_max":302,"o":"m 238 1165 q 283 1146 264 1165 q 302 1101 302 1127 q 283 1055 302 1074 q 238 1036 264 1036 q 192 1055 211 1036 q 173 1101 173 1074 q 192 1146 173 1127 q 238 1165 211 1165 m 85 1165 q 130 1146 111 1165 q 149 1101 149 1127 q 130 1055 149 1074 q 85 1036 111 1036 q 39 1055 58 1036 q 20 1101 20 1074 q 39 1146 20 1127 q 85 1165 58 1165 "},"©":{"ha":782,"x_min":24,"x_max":761,"o":"m 671 610 q 589 806 671 725 q 393 888 508 888 q 196 806 277 888 q 114 610 114 725 q 196 412 114 494 q 393 331 277 331 q 589 412 508 331 q 671 610 671 494 m 761 610 q 653 349 761 457 q 393 241 545 241 q 132 349 240 241 q 24 610 24 457 q 132 870 24 762 q 393 978 240 978 q 653 870 545 978 q 761 610 761 762 m 486 386 l 486 484 q 412 464 451 464 q 308 507 351 464 q 265 610 265 549 q 308 713 265 670 q 412 755 351 755 q 486 734 451 755 l 486 833 q 412 845 450 845 q 245 776 314 845 q 176 610 176 707 q 245 443 176 512 q 412 374 314 374 q 486 386 450 374 "},"ª":{"ha":439,"x_min":0,"x_max":0,"o":""},"«":{"ha":542,"x_min":0,"x_max":0,"o":""},"¬":{"ha":688,"x_min":0,"x_max":0,"o":""},"®":{"ha":782,"x_min":19,"x_max":755,"o":"m 336 735 l 336 642 l 416 642 q 449 656 435 642 q 463 688 463 669 q 449 722 463 708 q 416 735 435 735 l 336 735 m 336 553 l 336 398 l 246 398 l 246 825 l 416 825 q 512 785 472 825 q 552 688 552 745 q 481 569 552 608 l 570 398 l 469 398 l 389 553 l 336 553 m 387 890 q 584 808 503 890 q 666 612 666 727 q 584 414 666 496 q 387 333 503 333 q 191 414 272 333 q 109 612 109 496 q 191 808 109 727 q 387 890 272 890 m 387 243 q 648 351 540 243 q 755 612 755 459 q 648 871 755 764 q 387 980 540 980 q 127 871 235 980 q 19 612 19 764 q 127 351 19 459 q 387 243 235 243 "},"¯":{"ha":454,"x_min":0,"x_max":0,"o":""},"°":{"ha":158,"x_min":16,"x_max":140,"o":"m 78 927 q 87 923 83 927 q 92 913 92 919 q 87 903 92 907 q 78 900 83 900 q 68 903 73 900 q 64 913 64 907 q 68 923 64 919 q 78 927 73 927 m 78 851 q 122 869 104 851 q 140 913 140 888 q 122 958 140 939 q 78 976 104 976 q 34 958 52 976 q 16 913 16 939 q 34 869 16 888 q 78 851 52 851 "},"±":{"ha":688,"x_min":0,"x_max":0,"o":""},"²":{"ha":688,"x_min":0,"x_max":0,"o":""},"³":{"ha":688,"x_min":0,"x_max":0,"o":""},"´":{"ha":153,"x_min":20,"x_max":131,"o":"m 20 1167 l 131 1167 l 58 1014 l 20 1014 l 20 1167 "},"µ":{"ha":800,"x_min":0,"x_max":0,"o":""},"¶":{"ha":694,"x_min":0,"x_max":0,"o":""},"·":{"ha":345,"x_min":0,"x_max":0,"o":""},"¸":{"ha":694,"x_min":0,"x_max":0,"o":""},"¹":{"ha":688,"x_min":0,"x_max":0,"o":""},"º":{"ha":487,"x_min":0,"x_max":0,"o":""},"»":{"ha":640,"x_min":0,"x_max":0,"o":""},"¼":{"ha":1158,"x_min":0,"x_max":0,"o":""},"½":{"ha":1332,"x_min":0,"x_max":0,"o":""},"¾":{"ha":1158,"x_min":0,"x_max":0,"o":""},"¿":{"ha":437,"x_min":13,"x_max":419,"o":"m 292 532 l 203 532 q 193 348 203 399 q 139 231 181 290 q 107 192 130 219 q 45 107 63 140 q 13 -9 13 51 q 79 -188 13 -117 q 248 -258 146 -258 q 419 -180 349 -258 l 353 -119 q 248 -168 309 -168 q 143 -124 184 -168 q 102 -9 102 -79 q 176 134 102 48 q 212 179 201 163 q 280 328 264 253 q 292 532 292 389 m 242 606 q 197 625 216 606 q 178 670 178 644 q 197 716 178 697 q 242 735 216 735 q 288 716 269 735 q 307 670 307 697 q 288 625 307 644 q 242 606 269 606 "},"À":{"ha":798,"x_min":4,"x_max":739,"o":"m 620 974 l 739 974 l 739 0 l 650 0 l 650 243 l 264 243 l 110 0 l 4 0 l 620 974 m 650 854 l 320 333 l 650 333 l 650 854 m 629 1167 l 739 1167 l 739 1014 l 701 1014 l 629 1167 "},"Á":{"ha":798,"x_min":4,"x_max":739,"o":"m 620 974 l 739 974 l 739 0 l 650 0 l 650 243 l 264 243 l 110 0 l 4 0 l 620 974 m 650 854 l 320 333 l 650 333 l 650 854 m 621 1167 l 732 1167 l 659 1014 l 621 1014 l 621 1167 "},"Â":{"ha":798,"x_min":4,"x_max":840,"o":"m 620 974 l 739 974 l 739 0 l 650 0 l 650 243 l 264 243 l 110 0 l 4 0 l 620 974 m 650 854 l 320 333 l 650 333 l 650 854 m 605 1167 l 750 1167 l 840 1014 l 736 1014 l 677 1114 l 618 1014 l 515 1014 l 605 1167 "},"Ã":{"ha":798,"x_min":4,"x_max":739,"o":"m 620 974 l 739 974 l 739 0 l 650 0 l 650 243 l 264 243 l 110 0 l 4 0 l 620 974 m 650 854 l 320 333 l 650 333 l 650 854 m 648 1013 q 739 1051 696 1013 l 680 1118 q 644 1102 660 1101 q 587 1126 629 1103 q 547 1147 562 1140 q 435 1149 491 1173 q 366 1096 392 1131 l 437 1042 q 509 1065 469 1084 q 545 1047 522 1060 q 648 1013 610 1013 "},"Ä":{"ha":798,"x_min":4,"x_max":739,"o":"m 620 974 l 739 974 l 739 0 l 650 0 l 650 243 l 264 243 l 110 0 l 4 0 l 620 974 m 650 854 l 320 333 l 650 333 l 650 854 m 675 1165 q 720 1146 701 1165 q 739 1101 739 1127 q 720 1055 739 1074 q 675 1036 701 1036 q 629 1055 648 1036 q 610 1101 610 1074 q 629 1146 610 1127 q 675 1165 648 1165 m 522 1165 q 567 1146 548 1165 q 586 1101 586 1127 q 567 1055 586 1074 q 522 1036 548 1036 q 475 1055 494 1036 q 456 1101 456 1074 q 475 1146 456 1127 q 522 1165 494 1165 "},"Å":{"ha":798,"x_min":4,"x_max":739,"o":"m 620 974 l 739 974 l 739 0 l 650 0 l 650 243 l 264 243 l 110 0 l 4 0 l 620 974 m 650 854 l 320 333 l 650 333 l 650 854 m 674 1114 q 684 1110 680 1114 q 688 1101 688 1106 q 684 1090 688 1095 q 674 1087 680 1087 q 665 1090 669 1087 q 661 1101 661 1095 q 665 1110 661 1106 q 674 1114 669 1114 m 674 1038 q 718 1057 701 1038 q 736 1101 736 1075 q 718 1145 736 1126 q 674 1163 701 1163 q 630 1145 648 1163 q 612 1101 612 1126 q 630 1057 612 1075 q 674 1038 648 1038 "},"Æ":{"ha":1160,"x_min":-1,"x_max":1141,"o":"m 615 974 l 1141 974 l 1141 884 l 734 884 l 734 533 l 1057 533 l 1057 444 l 734 444 l 734 90 l 1141 90 l 1141 1 l 646 1 l 646 243 l 259 243 l 105 0 l -1 0 l 615 974 m 646 854 l 315 333 l 646 333 l 646 854 "},"Ç":{"ha":710,"x_min":15,"x_max":688,"o":"m 511 81 q 688 121 604 81 l 688 24 q 553 -7 623 -1 l 553 -35 q 644 -142 644 -60 q 605 -222 644 -189 q 509 -254 566 -254 q 412 -222 452 -254 q 373 -142 373 -189 l 463 -142 q 509 -165 463 -165 q 555 -142 555 -165 q 509 -118 555 -118 l 464 -118 l 464 -6 q 145 153 275 12 q 15 488 15 295 q 160 838 15 692 q 511 983 306 983 q 688 951 602 983 l 688 854 q 511 894 604 894 q 224 774 342 894 q 104 488 104 656 q 224 200 104 319 q 511 81 342 81 "},"È":{"ha":576,"x_min":61,"x_max":558,"o":"m 61 974 l 558 974 l 558 884 l 151 884 l 151 533 l 473 533 l 473 444 l 151 444 l 151 90 l 558 90 l 558 0 l 61 0 l 61 974 m 254 1167 l 365 1167 l 365 1014 l 327 1014 l 254 1167 "},"É":{"ha":576,"x_min":61,"x_max":558,"o":"m 61 974 l 558 974 l 558 884 l 151 884 l 151 533 l 473 533 l 473 444 l 151 444 l 151 90 l 558 90 l 558 0 l 61 0 l 61 974 m 254 1167 l 365 1167 l 292 1014 l 254 1014 l 254 1167 "},"Ê":{"ha":576,"x_min":61,"x_max":558,"o":"m 61 974 l 558 974 l 558 884 l 151 884 l 151 533 l 473 533 l 473 444 l 151 444 l 151 90 l 558 90 l 558 0 l 61 0 l 61 974 m 237 1167 l 382 1167 l 472 1014 l 368 1014 l 309 1114 l 251 1014 l 147 1014 l 237 1167 "},"Ë":{"ha":576,"x_min":61,"x_max":558,"o":"m 61 974 l 558 974 l 558 884 l 151 884 l 151 533 l 473 533 l 473 444 l 151 444 l 151 90 l 558 90 l 558 0 l 61 0 l 61 974 m 397 1165 q 442 1146 423 1165 q 461 1101 461 1127 q 442 1055 461 1074 q 397 1036 423 1036 q 351 1055 370 1036 q 332 1101 332 1074 q 351 1146 332 1127 q 397 1165 370 1165 m 243 1165 q 289 1146 270 1165 q 308 1101 308 1127 q 289 1055 308 1074 q 243 1036 270 1036 q 197 1055 216 1036 q 178 1101 178 1074 q 197 1146 178 1127 q 243 1165 216 1165 "},"Ì":{"ha":149,"x_min":7,"x_max":117,"o":"m 27 0 l 27 979 l 117 979 l 117 0 l 27 0 m 7 1167 l 117 1167 l 117 1014 l 79 1014 l 7 1167 "},"Í":{"ha":149,"x_min":27,"x_max":138,"o":"m 27 0 l 27 979 l 117 979 l 117 0 l 27 0 m 27 1167 l 138 1167 l 65 1014 l 27 1014 l 27 1167 "},"Î":{"ha":149,"x_min":-90,"x_max":235,"o":"m 27 0 l 27 979 l 117 979 l 117 0 l 27 0 m 0 1167 l 146 1167 l 235 1014 l 132 1014 l 73 1114 l 14 1014 l -90 1014 l 0 1167 "},"Ï":{"ha":149,"x_min":-66,"x_max":216,"o":"m 27 0 l 27 979 l 117 979 l 117 0 l 27 0 m 152 1165 q 197 1146 178 1165 q 216 1101 216 1127 q 197 1055 216 1074 q 152 1036 178 1036 q 106 1055 125 1036 q 87 1101 87 1074 q 106 1146 87 1127 q 152 1165 125 1165 m -1 1165 q 44 1146 25 1165 q 63 1101 63 1127 q 44 1055 63 1074 q -1 1036 25 1036 q -47 1055 -28 1036 q -66 1101 -66 1074 q -47 1146 -66 1127 q -1 1165 -28 1165 "},"Ð":{"ha":810,"x_min":-1,"x_max":789,"o":"m 152 89 l 302 89 q 583 205 467 89 q 700 487 700 322 q 583 768 700 652 q 302 885 467 885 l 152 885 l 152 533 l 319 533 l 319 444 l 152 444 l 152 89 m 63 974 l 302 974 q 646 831 504 974 q 789 487 789 688 q 646 143 789 286 q 302 0 504 0 l 63 0 l 63 444 l -1 444 l -1 533 l 63 533 l 63 974 "},"Ñ":{"ha":791,"x_min":61,"x_max":732,"o":"m 643 974 l 732 974 l 732 0 l 636 0 l 151 812 l 151 0 l 61 0 l 61 974 l 158 974 l 643 162 l 643 974 m 492 1013 q 583 1051 540 1013 l 524 1118 q 488 1102 504 1101 q 431 1126 473 1103 q 391 1147 406 1140 q 279 1149 335 1173 q 210 1096 236 1131 l 282 1042 q 353 1065 313 1084 q 389 1047 366 1060 q 492 1013 454 1013 "},"Ò":{"ha":1026,"x_min":16,"x_max":1008,"o":"m 512 893 q 800 774 680 893 q 919 486 919 654 q 800 199 919 318 q 512 79 680 79 q 224 199 344 79 q 105 486 105 318 q 224 774 105 654 q 512 893 344 893 m 512 -10 q 863 136 718 -10 q 1008 486 1008 281 q 863 838 1008 692 q 512 983 718 983 q 161 838 307 983 q 16 486 16 692 q 161 136 16 281 q 512 -10 307 -10 m 457 1167 l 568 1167 l 568 1014 l 530 1014 l 457 1167 "},"Ó":{"ha":1026,"x_min":16,"x_max":1008,"o":"m 512 893 q 800 774 680 893 q 919 486 919 654 q 800 199 919 318 q 512 79 680 79 q 224 199 344 79 q 105 486 105 318 q 224 774 105 654 q 512 893 344 893 m 512 -10 q 863 136 718 -10 q 1008 486 1008 281 q 863 838 1008 692 q 512 983 718 983 q 161 838 307 983 q 16 486 16 692 q 161 136 16 281 q 512 -10 307 -10 m 457 1167 l 568 1167 l 495 1014 l 457 1014 l 457 1167 "},"Ô":{"ha":1026,"x_min":16,"x_max":1008,"o":"m 512 893 q 800 774 680 893 q 919 486 919 654 q 800 199 919 318 q 512 79 680 79 q 224 199 344 79 q 105 486 105 318 q 224 774 105 654 q 512 893 344 893 m 512 -10 q 863 136 718 -10 q 1008 486 1008 281 q 863 838 1008 692 q 512 983 718 983 q 161 838 307 983 q 16 486 16 692 q 161 136 16 281 q 512 -10 307 -10 m 439 1167 l 585 1167 l 674 1014 l 570 1014 l 512 1114 l 454 1014 l 350 1014 l 439 1167 "},"Õ":{"ha":1026,"x_min":16,"x_max":1008,"o":"m 512 893 q 800 774 680 893 q 919 486 919 654 q 800 199 919 318 q 512 79 680 79 q 224 199 344 79 q 105 486 105 318 q 224 774 105 654 q 512 893 344 893 m 512 -10 q 863 136 718 -10 q 1008 486 1008 281 q 863 838 1008 692 q 512 983 718 983 q 161 838 307 983 q 16 486 16 692 q 161 136 16 281 q 512 -10 307 -10 m 608 1013 q 699 1051 655 1013 l 639 1118 q 603 1102 619 1101 q 547 1126 589 1103 q 507 1147 522 1140 q 394 1149 450 1173 q 326 1096 351 1131 l 397 1042 q 469 1065 428 1084 q 505 1047 481 1060 q 608 1013 570 1013 "},"Ö":{"ha":1026,"x_min":16,"x_max":1008,"o":"m 512 893 q 800 774 680 893 q 919 486 919 654 q 800 199 919 318 q 512 79 680 79 q 224 199 344 79 q 105 486 105 318 q 224 774 105 654 q 512 893 344 893 m 512 -10 q 863 136 718 -10 q 1008 486 1008 281 q 863 838 1008 692 q 512 983 718 983 q 161 838 307 983 q 16 486 16 692 q 161 136 16 281 q 512 -10 307 -10 m 591 1165 q 637 1146 618 1165 q 656 1101 656 1127 q 637 1055 656 1074 q 591 1036 618 1036 q 545 1055 564 1036 q 526 1101 526 1074 q 545 1146 526 1127 q 591 1165 564 1165 m 438 1165 q 484 1146 465 1165 q 503 1101 503 1127 q 484 1055 503 1074 q 438 1036 465 1036 q 392 1055 411 1036 q 373 1101 373 1074 q 392 1146 373 1127 q 438 1165 411 1165 "},"×":{"ha":688,"x_min":0,"x_max":0,"o":""},"Ø":{"ha":1095,"x_min":0,"x_max":0,"o":""},"Ù":{"ha":777,"x_min":60,"x_max":731,"o":"m 395 -11 q 633 87 534 -11 q 731 325 731 186 l 731 972 l 642 972 l 642 325 q 570 151 642 223 q 395 78 497 78 q 221 151 294 78 q 149 325 149 223 l 149 972 l 60 972 l 60 325 q 158 87 60 186 q 395 -11 256 -11 m 340 1167 l 451 1167 l 451 1014 l 413 1014 l 340 1167 "},"Ú":{"ha":777,"x_min":60,"x_max":731,"o":"m 395 -11 q 633 87 534 -11 q 731 325 731 186 l 731 972 l 642 972 l 642 325 q 570 151 642 223 q 395 78 497 78 q 221 151 294 78 q 149 325 149 223 l 149 972 l 60 972 l 60 325 q 158 87 60 186 q 395 -11 256 -11 m 340 1167 l 451 1167 l 378 1014 l 340 1014 l 340 1167 "},"Û":{"ha":777,"x_min":60,"x_max":731,"o":"m 395 -11 q 633 87 534 -11 q 731 325 731 186 l 731 972 l 642 972 l 642 325 q 570 151 642 223 q 395 78 497 78 q 221 151 294 78 q 149 325 149 223 l 149 972 l 60 972 l 60 325 q 158 87 60 186 q 395 -11 256 -11 m 323 1167 l 468 1167 l 557 1014 l 454 1014 l 395 1114 l 337 1014 l 233 1014 l 323 1167 "},"Ü":{"ha":777,"x_min":60,"x_max":731,"o":"m 395 -11 q 633 87 534 -11 q 731 325 731 186 l 731 972 l 642 972 l 642 325 q 570 151 642 223 q 395 78 497 78 q 221 151 294 78 q 149 325 149 223 l 149 972 l 60 972 l 60 325 q 158 87 60 186 q 395 -11 256 -11 m 471 1165 q 517 1146 498 1165 q 536 1101 536 1127 q 517 1055 536 1074 q 471 1036 498 1036 q 425 1055 444 1036 q 406 1101 406 1074 q 425 1146 406 1127 q 471 1165 444 1165 m 318 1165 q 363 1146 345 1165 q 382 1101 382 1127 q 363 1055 382 1074 q 318 1036 345 1036 q 272 1055 291 1036 q 253 1101 253 1074 q 272 1146 253 1127 q 318 1165 291 1165 "},"Ý":{"ha":690,"x_min":2,"x_max":690,"o":"m 587 974 l 690 974 l 391 466 l 391 0 l 301 0 l 301 466 l 2 974 l 106 974 l 346 566 l 587 974 m 291 1167 l 401 1167 l 329 1014 l 291 1014 l 291 1167 "},"Þ":{"ha":859,"x_min":61,"x_max":834,"o":"m 151 189 l 448 189 q 657 276 570 189 q 745 486 745 363 q 657 695 745 608 q 448 783 570 783 l 151 783 l 151 189 m 151 872 l 448 872 q 721 759 608 872 q 834 486 834 646 q 721 212 834 326 q 448 99 608 99 l 151 99 l 151 0 l 61 0 l 61 974 l 151 974 l 151 872 "},"ß":{"ha":629,"x_min":60,"x_max":602,"o":"m 459 531 q 562 427 524 492 q 602 281 602 359 q 517 75 602 161 q 311 -10 431 -10 q 186 18 245 -10 l 225 98 q 311 79 266 79 q 453 138 394 79 q 512 281 512 198 q 453 423 512 365 q 311 482 394 482 l 311 572 q 425 618 378 572 q 472 732 472 666 q 425 846 472 799 q 311 893 378 893 q 197 846 244 893 q 150 732 150 799 l 150 0 l 60 0 l 60 732 q 134 909 60 836 q 311 983 208 983 q 488 909 414 983 q 562 732 562 836 q 459 531 562 606 "},"à":{"ha":798,"x_min":4,"x_max":739,"o":"m 620 974 l 739 974 l 739 0 l 650 0 l 650 243 l 264 243 l 110 0 l 4 0 l 620 974 m 650 854 l 320 333 l 650 333 l 650 854 m 629 1167 l 739 1167 l 739 1014 l 701 1014 l 629 1167 "},"á":{"ha":798,"x_min":4,"x_max":739,"o":"m 620 974 l 739 974 l 739 0 l 650 0 l 650 243 l 264 243 l 110 0 l 4 0 l 620 974 m 650 854 l 320 333 l 650 333 l 650 854 m 621 1167 l 732 1167 l 659 1014 l 621 1014 l 621 1167 "},"â":{"ha":798,"x_min":4,"x_max":840,"o":"m 620 974 l 739 974 l 739 0 l 650 0 l 650 243 l 264 243 l 110 0 l 4 0 l 620 974 m 650 854 l 320 333 l 650 333 l 650 854 m 605 1167 l 750 1167 l 840 1014 l 736 1014 l 677 1114 l 618 1014 l 515 1014 l 605 1167 "},"ã":{"ha":798,"x_min":4,"x_max":739,"o":"m 620 974 l 739 974 l 739 0 l 650 0 l 650 243 l 264 243 l 110 0 l 4 0 l 620 974 m 650 854 l 320 333 l 650 333 l 650 854 m 648 1013 q 739 1051 696 1013 l 680 1118 q 644 1102 660 1101 q 587 1126 629 1103 q 547 1147 562 1140 q 435 1149 491 1173 q 366 1096 392 1131 l 437 1042 q 509 1065 469 1084 q 545 1047 522 1060 q 648 1013 610 1013 "},"ä":{"ha":798,"x_min":4,"x_max":739,"o":"m 620 974 l 739 974 l 739 0 l 650 0 l 650 243 l 264 243 l 110 0 l 4 0 l 620 974 m 650 854 l 320 333 l 650 333 l 650 854 m 675 1165 q 720 1146 701 1165 q 739 1101 739 1127 q 720 1055 739 1074 q 675 1036 701 1036 q 629 1055 648 1036 q 610 1101 610 1074 q 629 1146 610 1127 q 675 1165 648 1165 m 522 1165 q 567 1146 548 1165 q 586 1101 586 1127 q 567 1055 586 1074 q 522 1036 548 1036 q 475 1055 494 1036 q 456 1101 456 1074 q 475 1146 456 1127 q 522 1165 494 1165 "},"å":{"ha":798,"x_min":4,"x_max":739,"o":"m 620 974 l 739 974 l 739 0 l 650 0 l 650 243 l 264 243 l 110 0 l 4 0 l 620 974 m 650 854 l 320 333 l 650 333 l 650 854 m 674 1114 q 684 1110 680 1114 q 688 1101 688 1106 q 684 1090 688 1095 q 674 1087 680 1087 q 665 1090 669 1087 q 661 1101 661 1095 q 665 1110 661 1106 q 674 1114 669 1114 m 674 1038 q 718 1057 701 1038 q 736 1101 736 1075 q 718 1145 736 1126 q 674 1163 701 1163 q 630 1145 648 1163 q 612 1101 612 1126 q 630 1057 612 1075 q 674 1038 648 1038 "},"æ":{"ha":1160,"x_min":-1,"x_max":1141,"o":"m 615 974 l 1141 974 l 1141 884 l 734 884 l 734 533 l 1057 533 l 1057 444 l 734 444 l 734 90 l 1141 90 l 1141 1 l 646 1 l 646 243 l 259 243 l 105 0 l -1 0 l 615 974 m 646 854 l 315 333 l 646 333 l 646 854 "},"ç":{"ha":710,"x_min":15,"x_max":688,"o":"m 511 81 q 688 121 604 81 l 688 24 q 553 -7 623 -1 l 553 -35 q 644 -142 644 -60 q 605 -222 644 -189 q 509 -254 566 -254 q 412 -222 452 -254 q 373 -142 373 -189 l 463 -142 q 509 -165 463 -165 q 555 -142 555 -165 q 509 -118 555 -118 l 464 -118 l 464 -6 q 145 153 275 12 q 15 488 15 295 q 160 838 15 692 q 511 983 306 983 q 688 951 602 983 l 688 854 q 511 894 604 894 q 224 774 342 894 q 104 488 104 656 q 224 200 104 319 q 511 81 342 81 "},"è":{"ha":576,"x_min":61,"x_max":558,"o":"m 61 974 l 558 974 l 558 884 l 151 884 l 151 533 l 473 533 l 473 444 l 151 444 l 151 90 l 558 90 l 558 0 l 61 0 l 61 974 m 254 1167 l 365 1167 l 365 1014 l 327 1014 l 254 1167 "},"é":{"ha":576,"x_min":61,"x_max":558,"o":"m 61 974 l 558 974 l 558 884 l 151 884 l 151 533 l 473 533 l 473 444 l 151 444 l 151 90 l 558 90 l 558 0 l 61 0 l 61 974 m 254 1167 l 365 1167 l 292 1014 l 254 1014 l 254 1167 "},"ê":{"ha":576,"x_min":61,"x_max":558,"o":"m 61 974 l 558 974 l 558 884 l 151 884 l 151 533 l 473 533 l 473 444 l 151 444 l 151 90 l 558 90 l 558 0 l 61 0 l 61 974 m 237 1167 l 382 1167 l 472 1014 l 368 1014 l 309 1114 l 251 1014 l 147 1014 l 237 1167 "},"ë":{"ha":576,"x_min":61,"x_max":558,"o":"m 61 974 l 558 974 l 558 884 l 151 884 l 151 533 l 473 533 l 473 444 l 151 444 l 151 90 l 558 90 l 558 0 l 61 0 l 61 974 m 397 1165 q 442 1146 423 1165 q 461 1101 461 1127 q 442 1055 461 1074 q 397 1036 423 1036 q 351 1055 370 1036 q 332 1101 332 1074 q 351 1146 332 1127 q 397 1165 370 1165 m 243 1165 q 289 1146 270 1165 q 308 1101 308 1127 q 289 1055 308 1074 q 243 1036 270 1036 q 197 1055 216 1036 q 178 1101 178 1074 q 197 1146 178 1127 q 243 1165 216 1165 "},"ì":{"ha":149,"x_min":7,"x_max":117,"o":"m 27 0 l 27 979 l 117 979 l 117 0 l 27 0 m 7 1167 l 117 1167 l 117 1014 l 79 1014 l 7 1167 "},"í":{"ha":149,"x_min":27,"x_max":138,"o":"m 27 0 l 27 979 l 117 979 l 117 0 l 27 0 m 27 1167 l 138 1167 l 65 1014 l 27 1014 l 27 1167 "},"î":{"ha":149,"x_min":-90,"x_max":235,"o":"m 27 0 l 27 979 l 117 979 l 117 0 l 27 0 m 0 1167 l 146 1167 l 235 1014 l 132 1014 l 73 1114 l 14 1014 l -90 1014 l 0 1167 "},"ï":{"ha":149,"x_min":-66,"x_max":216,"o":"m 27 0 l 27 979 l 117 979 l 117 0 l 27 0 m 152 1165 q 197 1146 178 1165 q 216 1101 216 1127 q 197 1055 216 1074 q 152 1036 178 1036 q 106 1055 125 1036 q 87 1101 87 1074 q 106 1146 87 1127 q 152 1165 125 1165 m -1 1165 q 44 1146 25 1165 q 63 1101 63 1127 q 44 1055 63 1074 q -1 1036 25 1036 q -47 1055 -28 1036 q -66 1101 -66 1074 q -47 1146 -66 1127 q -1 1165 -28 1165 "},"ð":{"ha":810,"x_min":-1,"x_max":789,"o":"m 152 89 l 302 89 q 583 205 467 89 q 700 487 700 322 q 583 768 700 652 q 302 885 467 885 l 152 885 l 152 533 l 319 533 l 319 444 l 152 444 l 152 89 m 63 974 l 302 974 q 646 831 504 974 q 789 487 789 688 q 646 143 789 286 q 302 0 504 0 l 63 0 l 63 444 l -1 444 l -1 533 l 63 533 l 63 974 "},"ñ":{"ha":791,"x_min":61,"x_max":732,"o":"m 643 974 l 732 974 l 732 0 l 636 0 l 151 812 l 151 0 l 61 0 l 61 974 l 158 974 l 643 162 l 643 974 m 492 1013 q 583 1051 540 1013 l 524 1118 q 488 1102 504 1101 q 431 1126 473 1103 q 391 1147 406 1140 q 279 1149 335 1173 q 210 1096 236 1131 l 282 1042 q 353 1065 313 1084 q 389 1047 366 1060 q 492 1013 454 1013 "},"ò":{"ha":1026,"x_min":16,"x_max":1008,"o":"m 512 893 q 800 774 680 893 q 919 486 919 654 q 800 199 919 318 q 512 79 680 79 q 224 199 344 79 q 105 486 105 318 q 224 774 105 654 q 512 893 344 893 m 512 -10 q 863 136 718 -10 q 1008 486 1008 281 q 863 838 1008 692 q 512 983 718 983 q 161 838 307 983 q 16 486 16 692 q 161 136 16 281 q 512 -10 307 -10 m 457 1167 l 568 1167 l 568 1014 l 530 1014 l 457 1167 "},"ó":{"ha":1026,"x_min":16,"x_max":1008,"o":"m 512 893 q 800 774 680 893 q 919 486 919 654 q 800 199 919 318 q 512 79 680 79 q 224 199 344 79 q 105 486 105 318 q 224 774 105 654 q 512 893 344 893 m 512 -10 q 863 136 718 -10 q 1008 486 1008 281 q 863 838 1008 692 q 512 983 718 983 q 161 838 307 983 q 16 486 16 692 q 161 136 16 281 q 512 -10 307 -10 m 457 1167 l 568 1167 l 495 1014 l 457 1014 l 457 1167 "},"ô":{"ha":1026,"x_min":16,"x_max":1008,"o":"m 512 893 q 800 774 680 893 q 919 486 919 654 q 800 199 919 318 q 512 79 680 79 q 224 199 344 79 q 105 486 105 318 q 224 774 105 654 q 512 893 344 893 m 512 -10 q 863 136 718 -10 q 1008 486 1008 281 q 863 838 1008 692 q 512 983 718 983 q 161 838 307 983 q 16 486 16 692 q 161 136 16 281 q 512 -10 307 -10 m 439 1167 l 585 1167 l 674 1014 l 570 1014 l 512 1114 l 454 1014 l 350 1014 l 439 1167 "},"õ":{"ha":1026,"x_min":16,"x_max":1008,"o":"m 512 893 q 800 774 680 893 q 919 486 919 654 q 800 199 919 318 q 512 79 680 79 q 224 199 344 79 q 105 486 105 318 q 224 774 105 654 q 512 893 344 893 m 512 -10 q 863 136 718 -10 q 1008 486 1008 281 q 863 838 1008 692 q 512 983 718 983 q 161 838 307 983 q 16 486 16 692 q 161 136 16 281 q 512 -10 307 -10 m 608 1013 q 699 1051 655 1013 l 639 1118 q 603 1102 619 1101 q 547 1126 589 1103 q 507 1147 522 1140 q 394 1149 450 1173 q 326 1096 351 1131 l 397 1042 q 469 1065 428 1084 q 505 1047 481 1060 q 608 1013 570 1013 "},"ö":{"ha":1026,"x_min":16,"x_max":1008,"o":"m 512 893 q 800 774 680 893 q 919 486 919 654 q 800 199 919 318 q 512 79 680 79 q 224 199 344 79 q 105 486 105 318 q 224 774 105 654 q 512 893 344 893 m 512 -10 q 863 136 718 -10 q 1008 486 1008 281 q 863 838 1008 692 q 512 983 718 983 q 161 838 307 983 q 16 486 16 692 q 161 136 16 281 q 512 -10 307 -10 m 591 1165 q 637 1146 618 1165 q 656 1101 656 1127 q 637 1055 656 1074 q 591 1036 618 1036 q 545 1055 564 1036 q 526 1101 526 1074 q 545 1146 526 1127 q 591 1165 564 1165 m 438 1165 q 484 1146 465 1165 q 503 1101 503 1127 q 484 1055 503 1074 q 438 1036 465 1036 q 392 1055 411 1036 q 373 1101 373 1074 q 392 1146 373 1127 q 438 1165 411 1165 "},"÷":{"ha":688,"x_min":0,"x_max":0,"o":""},"ø":{"ha":685,"x_min":0,"x_max":0,"o":""},"ù":{"ha":777,"x_min":60,"x_max":731,"o":"m 395 -11 q 633 87 534 -11 q 731 325 731 186 l 731 972 l 642 972 l 642 325 q 570 151 642 223 q 395 78 497 78 q 221 151 294 78 q 149 325 149 223 l 149 972 l 60 972 l 60 325 q 158 87 60 186 q 395 -11 256 -11 m 340 1167 l 451 1167 l 451 1014 l 413 1014 l 340 1167 "},"ú":{"ha":777,"x_min":60,"x_max":731,"o":"m 395 -11 q 633 87 534 -11 q 731 325 731 186 l 731 972 l 642 972 l 642 325 q 570 151 642 223 q 395 78 497 78 q 221 151 294 78 q 149 325 149 223 l 149 972 l 60 972 l 60 325 q 158 87 60 186 q 395 -11 256 -11 m 340 1167 l 451 1167 l 378 1014 l 340 1014 l 340 1167 "},"û":{"ha":777,"x_min":60,"x_max":731,"o":"m 395 -11 q 633 87 534 -11 q 731 325 731 186 l 731 972 l 642 972 l 642 325 q 570 151 642 223 q 395 78 497 78 q 221 151 294 78 q 149 325 149 223 l 149 972 l 60 972 l 60 325 q 158 87 60 186 q 395 -11 256 -11 m 323 1167 l 468 1167 l 557 1014 l 454 1014 l 395 1114 l 337 1014 l 233 1014 l 323 1167 "},"ü":{"ha":777,"x_min":60,"x_max":731,"o":"m 395 -11 q 633 87 534 -11 q 731 325 731 186 l 731 972 l 642 972 l 642 325 q 570 151 642 223 q 395 78 497 78 q 221 151 294 78 q 149 325 149 223 l 149 972 l 60 972 l 60 325 q 158 87 60 186 q 395 -11 256 -11 m 471 1165 q 517 1146 498 1165 q 536 1101 536 1127 q 517 1055 536 1074 q 471 1036 498 1036 q 425 1055 444 1036 q 406 1101 406 1074 q 425 1146 406 1127 q 471 1165 444 1165 m 318 1165 q 363 1146 345 1165 q 382 1101 382 1127 q 363 1055 382 1074 q 318 1036 345 1036 q 272 1055 291 1036 q 253 1101 253 1074 q 272 1146 253 1127 q 318 1165 291 1165 "},"ý":{"ha":690,"x_min":2,"x_max":690,"o":"m 587 974 l 690 974 l 391 466 l 391 0 l 301 0 l 301 466 l 2 974 l 106 974 l 346 566 l 587 974 m 291 1167 l 401 1167 l 329 1014 l 291 1014 l 291 1167 "},"þ":{"ha":859,"x_min":61,"x_max":834,"o":"m 151 189 l 448 189 q 657 276 570 189 q 745 486 745 363 q 657 695 745 608 q 448 783 570 783 l 151 783 l 151 189 m 151 872 l 448 872 q 721 759 608 872 q 834 486 834 646 q 721 212 834 326 q 448 99 608 99 l 151 99 l 151 0 l 61 0 l 61 974 l 151 974 l 151 872 "},"ÿ":{"ha":690,"x_min":2,"x_max":690,"o":"m 587 974 l 690 974 l 391 466 l 391 0 l 301 0 l 301 466 l 2 974 l 106 974 l 346 566 l 587 974 m 420 1165 q 465 1146 446 1165 q 484 1101 484 1127 q 465 1055 484 1074 q 420 1036 446 1036 q 374 1055 393 1036 q 355 1101 355 1074 q 374 1146 355 1127 q 420 1165 393 1165 m 267 1165 q 312 1146 293 1165 q 331 1101 331 1127 q 312 1055 331 1074 q 267 1036 293 1036 q 220 1055 239 1036 q 201 1101 201 1074 q 220 1146 201 1127 q 267 1165 239 1165 "},"ı":{"ha":149,"x_min":27,"x_max":117,"o":"m 27 0 l 27 979 l 117 979 l 117 0 l 27 0 "},"ˆ":{"ha":694,"x_min":0,"x_max":0,"o":""},"ˇ":{"ha":694,"x_min":0,"x_max":0,"o":""},"ˉ":{"ha":694,"x_min":0,"x_max":0,"o":""},"˘":{"ha":694,"x_min":0,"x_max":0,"o":""},"˙":{"ha":694,"x_min":0,"x_max":0,"o":""},"˚":{"ha":158,"x_min":16,"x_max":140,"o":"m 78 927 q 87 923 83 927 q 92 913 92 919 q 87 903 92 907 q 78 900 83 900 q 68 903 73 900 q 64 913 64 907 q 68 923 64 919 q 78 927 73 927 m 78 851 q 122 869 104 851 q 140 913 140 888 q 122 958 140 939 q 78 976 104 976 q 34 958 52 976 q 16 913 16 939 q 34 869 16 888 q 78 851 52 851 "},"˛":{"ha":694,"x_min":0,"x_max":0,"o":""},"˜":{"ha":694,"x_min":0,"x_max":0,"o":""},"˝":{"ha":694,"x_min":0,"x_max":0,"o":""},"–":{"ha":751,"x_min":0,"x_max":0,"o":""},"—":{"ha":1389,"x_min":0,"x_max":0,"o":""},"‘":{"ha":173,"x_min":15,"x_max":150,"o":"m 22 833 q 24 905 15 871 q 91 983 37 960 l 109 958 q 76 916 83 942 q 85 916 81 916 q 131 897 112 916 q 150 851 150 878 q 131 805 150 824 q 85 786 112 786 q 45 800 64 786 q 22 833 28 813 "},"’":{"ha":173,"x_min":19,"x_max":154,"o":"m 146 935 q 145 864 154 898 q 78 786 132 809 l 60 811 q 93 853 85 827 q 84 852 88 852 q 38 871 57 852 q 19 918 19 890 q 38 964 19 945 q 84 983 57 983 q 123 969 105 983 q 146 935 140 956 "},"‚":{"ha":378,"x_min":0,"x_max":0,"o":""},"“":{"ha":317,"x_min":15,"x_max":294,"o":"m 166 833 q 168 905 159 871 q 235 983 181 960 l 253 958 q 220 916 227 942 q 229 916 224 916 q 275 897 256 916 q 294 851 294 878 q 275 805 294 824 q 229 786 256 786 q 189 800 208 786 q 166 833 172 813 m 22 833 q 24 905 15 871 q 91 983 37 960 l 109 958 q 76 916 83 942 q 85 916 81 916 q 131 897 112 916 q 150 851 150 878 q 131 805 150 824 q 85 786 112 786 q 45 800 64 786 q 22 833 28 813 "},"”":{"ha":317,"x_min":19,"x_max":298,"o":"m 146 935 q 145 864 154 898 q 78 786 132 809 l 60 811 q 93 853 85 827 q 84 852 88 852 q 38 871 57 852 q 19 918 19 890 q 38 964 19 945 q 84 983 57 983 q 123 969 105 983 q 146 935 140 956 m 290 935 q 289 864 298 898 q 222 786 275 809 l 203 811 q 237 853 229 827 q 228 852 232 852 q 182 871 201 852 q 163 918 163 890 q 182 964 163 945 q 228 983 201 983 q 267 969 249 983 q 290 935 284 956 "},"„":{"ha":617,"x_min":0,"x_max":0,"o":""},"†":{"ha":688,"x_min":0,"x_max":0,"o":""},"‡":{"ha":688,"x_min":0,"x_max":0,"o":""},"•":{"ha":240,"x_min":51,"x_max":180,"o":"m 116 581 q 161 562 142 581 q 180 515 180 543 q 161 470 180 488 q 116 451 142 451 q 70 470 89 451 q 51 515 51 488 q 70 562 51 543 q 116 581 89 581 "},"…":{"ha":1389,"x_min":0,"x_max":0,"o":""},"‹":{"ha":542,"x_min":0,"x_max":0,"o":""},"›":{"ha":542,"x_min":0,"x_max":0,"o":""},"⁄":{"ha":232,"x_min":0,"x_max":0,"o":""},"₣":{"ha":688,"x_min":0,"x_max":0,"o":""},"₤":{"ha":688,"x_min":0,"x_max":0,"o":""},"₧":{"ha":1375,"x_min":0,"x_max":0,"o":""},"€":{"ha":676,"x_min":18,"x_max":652,"o":"m 503 380 l 204 380 q 317 188 233 269 q 515 83 402 106 l 503 -5 q 250 129 356 24 q 113 380 142 235 l 18 380 l 18 470 l 102 470 q 102 481 102 482 q 104 530 102 506 l 18 530 l 18 620 l 122 620 q 298 876 168 777 q 598 978 431 978 q 652 975 625 978 l 638 886 q 598 888 618 888 q 363 813 469 888 q 216 620 259 739 l 503 620 l 503 530 l 195 530 q 191 481 191 505 q 192 470 191 481 l 503 470 l 503 380 "},"№":{"ha":1540,"x_min":0,"x_max":0,"o":""},"™":{"ha":1015,"x_min":0,"x_max":0,"o":""},"∂":{"ha":688,"x_min":0,"x_max":0,"o":""},"∆":{"ha":733,"x_min":0,"x_max":0,"o":""},"∏":{"ha":1027,"x_min":0,"x_max":0,"o":""},"∑":{"ha":818,"x_min":0,"x_max":0,"o":""},"−":{"ha":688,"x_min":0,"x_max":0,"o":""},"√":{"ha":688,"x_min":0,"x_max":0,"o":""},"∞":{"ha":688,"x_min":0,"x_max":0,"o":""},"∫":{"ha":451,"x_min":0,"x_max":0,"o":""},"≈":{"ha":688,"x_min":0,"x_max":0,"o":""},"≤":{"ha":688,"x_min":0,"x_max":0,"o":""},"≥":{"ha":688,"x_min":0,"x_max":0,"o":""},"":{"ha":728,"x_min":0,"x_max":0,"o":""},"":{"ha":733,"x_min":0,"x_max":0,"o":""}}}
